<svg xmlns="http://www.w3.org/2000/svg" xmlns:xlink="http://www.w3.org/1999/xlink" width="32" height="32" viewBox="0 0 32 32"><path style="line-height:normal;text-indent:0;text-align:start;text-decoration-line:none;text-decoration-style:solid;text-decoration-color:#000;text-transform:none;block-progression:tb;isolation:auto;mix-blend-mode:normal" fill="white" d="M 16.095703 2.0019531 C 15.535406 1.9809531 14.968877 2.1456531 14.496094 2.5019531 A 0.50004999 0.50005002 0 0 0 14.494141 2.5019531 C 13.713026 3.0908143 13.370348 4.0715915 13.558594 4.9980469 L 11.5 4.9980469 A 0.50004993 0.50004996 0 0 0 11 5.4980469 L 11 5.9980469 L 6.5 5.9980469 A 0.50004999 0.50005002 0 0 0 6 6.4980469 L 6 29.498047 A 0.50004999 0.50005002 0 0 0 6.5 29.998047 L 25.5 29.998047 A 0.50004999 0.50005002 0 0 0 26 29.498047 C 26 22.482747 26.000019 14.386147 26 6.4980469 A 0.50004999 0.50005002 0 0 0 25.5 5.9980469 L 21 5.9980469 C 20.999999 5.825873 21.000002 5.6695219 21 5.4980469 A 0.50004993 0.50004996 0 0 0 20.5 4.9980469 L 18.445312 4.9980469 C 18.618469 4.14009 18.336361 3.225996 17.652344 2.6230469 C 17.208273 2.2315469 16.656 2.0234531 16.095703 2.0019531 z M 16.058594 2.9980469 C 16.393767 3.0107594 16.72394 3.1366469 16.992188 3.3730469 C 17.528764 3.8460469 17.656276 4.6235406 17.300781 5.2441406 A 0.50087665 0.50087667 0 0 0 17.470703 5.9179688 A 0.50004993 0.50004996 0 0 0 17.492188 5.9316406 A 0.50087665 0.50087667 0 0 0 17.511719 5.9414062 A 0.50004993 0.50004996 0 0 0 17.535156 5.953125 A 0.50087665 0.50087667 0 0 0 17.548828 5.9589844 A 0.50004993 0.50004996 0 0 0 17.75 5.9980469 L 20 5.9980469 L 20 6.4179688 A 0.50004999 0.50005002 0 0 0 20 6.5820312 L 20 8.4179688 A 0.50004999 0.50005002 0 0 0 20 8.5820312 L 20 8.9980469 L 12 8.9980469 L 12 8.578125 A 0.50004999 0.50005002 0 0 0 12 8.4179688 L 12 6.578125 A 0.50004999 0.50005002 0 0 0 12 6.4179688 L 12 5.9980469 L 14.25 5.9980469 A 0.50004993 0.50004996 0 0 0 14.679688 5.2324219 A 0.50004999 0.50005002 0 0 0 14.644531 5.1425781 C 14.337536 4.4964781 14.526501 3.7312813 15.097656 3.3007812 C 15.383249 3.0855312 15.723421 2.9853344 16.058594 2.9980469 z M 7 6.9980469 L 11 6.9980469 L 11 7.9980469 L 8.5 7.9980469 A 0.50004999 0.50005002 0 0 0 8 8.4980469 L 8 27.498047 A 0.50004999 0.50005002 0 0 0 8.5 27.998047 L 23.5 27.998047 A 0.50004999 0.50005002 0 0 0 24 27.498047 L 24 8.4980469 A 0.50004999 0.50005002 0 0 0 23.5 7.9980469 L 21 7.9980469 C 21.000001 7.6656555 21 7.3399258 21 6.9980469 L 25 6.9980469 C 25.000017 14.551347 25 22.243447 25 28.998047 L 7 28.998047 L 7 6.9980469 z M 9 8.9980469 L 11 8.9980469 L 11 9.4980469 A 0.50004993 0.50004996 0 0 0 11.5 9.9980469 L 20.464844 9.9980469 L 20.5 9.9980469 A 0.50004993 0.50004996 0 0 0 21 9.4980469 C 21 9.3455469 21 9.1559895 21 8.9980469 L 23 8.9980469 L 23 26.998047 L 9 26.998047 L 9 8.9980469 z M 10.5 10.998047 A 0.50004996 0.50004999 0 0 0 10 11.498047 L 10 15.498047 A 0.50004996 0.50004999 0 0 0 10.5 15.998047 L 14.5 15.998047 A 0.50004996 0.50004999 0 0 0 15 15.498047 L 15 11.498047 A 0.50004996 0.50004999 0 0 0 14.5 10.998047 L 10.5 10.998047 z M 16.507812 10.998047 A 0.50004999 0.50005002 0 1 0 16.507812 11.998047 L 21.490234 11.998047 A 0.50004999 0.50005002 0 1 0 21.490234 10.998047 L 16.507812 10.998047 z M 11 11.998047 L 14 11.998047 L 14 14.998047 L 11 14.998047 L 11 11.998047 z M 16.507812 12.998047 A 0.50004999 0.50005002 0 1 0 16.507812 13.998047 L 21.490234 13.998047 A 0.50004999 0.50005002 0 1 0 21.490234 12.998047 L 16.507812 12.998047 z M 16.507812 14.998047 A 0.50004999 0.50005002 0 1 0 16.507812 15.998047 L 21.490234 15.998047 A 0.50004999 0.50005002 0 1 0 21.490234 14.998047 L 16.507812 14.998047 z M 10.511719 16.998047 A 0.50004999 0.50005002 0 1 0 10.511719 17.998047 L 21.488281 17.998047 A 0.50004999 0.50005002 0 1 0 21.488281 16.998047 L 10.511719 16.998047 z M 10.511719 18.998047 A 0.50004999 0.50005002 0 1 0 10.511719 19.998047 L 21.488281 19.998047 A 0.50004999 0.50005002 0 1 0 21.488281 18.998047 L 10.511719 18.998047 z M 10.507812 20.998047 A 0.50004999 0.50005002 0 1 0 10.507812 21.998047 L 14.474609 21.998047 A 0.50004999 0.50005002 0 1 0 14.474609 20.998047 L 10.507812 20.998047 z M 18.498047 24.998047 A 0.50004996 0.50004999 0 1 0 18.498047 25.998047 L 21.517578 25.998047 A 0.50004996 0.50004999 0 1 0 21.517578 24.998047 L 18.498047 24.998047 z " color="#000" font-family="sans-serif" font-weight="400" overflow="visible" white-space="normal"/></svg>
