<svg xmlns="http://www.w3.org/2000/svg" xmlns:xlink="http://www.w3.org/1999/xlink" width="32" height="32" viewBox="0 0 32 32"><path fill="white" d="m 11.5,1022.3602 a 0.50004997,0.50004997 0 0 0 -0.5,0.5 l 0,2.5 -6,0 c -0.5453517,0 -1,0.4547 -1,1 l 0,3 c 0,0.5454 0.4546483,1 1,1 l 1,0 0,18.002 c 0,1.0993 0.9006481,2 2,2 l 15,0 c 1.099351,0 2,-0.9007 2,-2 l 0,-18.002 1,0 c 0.545352,0 1,-0.4546 1,-1 l 0,-3 c 0,-0.5453 -0.454648,-1 -1,-1 l -6,0 0,-2.5 a 0.50004997,0.50004997 0 0 0 -0.5,-0.5 l -8,0 z m 0.5,1 7,0 0,2 -7,0 0,-2 z m -7,3 21,0 0,3 -21,0 0,-3 z m 2,4.002 17,0 0,18 c 0,0.5626 -0.437351,1 -1,1 l -15,0 c -0.5626495,0 -1,-0.4374 -1,-1 l 0,-18 z m 3.5,1.998 c -0.822351,0 -1.5,0.6777 -1.5,1.5 l 0,12 c 0,0.8224 0.677649,1.5 1.5,1.5 0.822351,0 1.5,-0.6776 1.5,-1.5 l 0,-12 c 0,-0.8223 -0.677649,-1.5 -1.5,-1.5 z m 5,0 c -0.822351,0 -1.5,0.6777 -1.5,1.5 l 0,12 c 0,0.8224 0.677649,1.5 1.5,1.5 0.822351,0 1.5,-0.6776 1.5,-1.5 l 0,-12 c 0,-0.8223 -0.677649,-1.5 -1.5,-1.5 z m 5,0 c -0.822351,0 -1.5,0.6777 -1.5,1.5 l 0,12 c 0,0.8224 0.677649,1.5 1.5,1.5 0.822351,0 1.5,-0.6776 1.5,-1.5 l 0,-12 c 0,-0.8223 -0.677649,-1.5 -1.5,-1.5 z m -10,1 c 0.285649,0 0.5,0.2144 0.5,0.5 l 0,12 c 0,0.2857 -0.214351,0.5 -0.5,0.5 -0.285649,0 -0.5,-0.2143 -0.5,-0.5 l 0,-12 c 0,-0.2856 0.214351,-0.5 0.5,-0.5 z m 5,0 c 0.285649,0 0.5,0.2144 0.5,0.5 l 0,12 c 0,0.2857 -0.214351,0.5 -0.5,0.5 -0.285649,0 -0.5,-0.2143 -0.5,-0.5 l 0,-12 c 0,-0.2856 0.214351,-0.5 0.5,-0.5 z m 5,0 c 0.285649,0 0.5,0.2144 0.5,0.5 l 0,12 c 0,0.2857 -0.214351,0.5 -0.5,0.5 -0.285649,0 -0.5,-0.2143 -0.5,-0.5 l 0,-12 c 0,-0.2856 0.214351,-0.5 0.5,-0.5 z" color="#000" font-family="sans-serif" font-weight="400" overflow="visible" transform="translate(0 -1020.362)" white-space="normal" style="line-height:normal;text-indent:0;text-align:start;text-decoration-line:none;text-decoration-style:solid;text-decoration-color:#000;text-transform:none;block-progression:tb;isolation:auto;mix-blend-mode:normal"/></svg>
