<svg width="30" height="30" viewBox="0 0 30 30" fill="none" xmlns="http://www.w3.org/2000/svg">
<path d="M15.7277 2.99981L15.7371 3.00754L15.7466 3.01497L27.238 11.9493C27.426 12.0954 27.3226 12.3967 27.0846 12.3967H26.5882C25.6217 12.3967 24.8382 13.1802 24.8382 14.1467V24.873C24.8382 25.6754 24.8368 26.2055 24.7889 26.5875C24.7415 26.9654 24.665 27.0342 24.6497 27.0478C24.6153 27.0782 24.4893 27.1591 24.0258 27.2047C23.575 27.2491 22.9574 27.25 22.0588 27.25H18.6471C18.509 27.25 18.3971 27.1381 18.3971 27V19.7143C18.3971 18.7478 17.6136 17.9643 16.6471 17.9643H13.3529C12.3864 17.9643 11.6029 18.7478 11.6029 19.7143V27C11.6029 27.1381 11.491 27.25 11.3529 27.25H7.94118C7.04256 27.25 6.42499 27.2491 5.97421 27.2047C5.51073 27.1591 5.38468 27.0782 5.3503 27.0478C5.33497 27.0342 5.25848 26.9654 5.21108 26.5875C5.16318 26.2055 5.16176 25.6754 5.16176 24.873V14.1455C5.16176 13.1779 4.37712 12.3967 3.41176 12.3967H2.91542C2.67736 12.3967 2.57403 12.0954 2.76197 11.9493L14.2534 3.01497L14.2629 3.00754L14.2723 2.99981C14.6733 2.66673 15.3267 2.66673 15.7277 2.99981Z" stroke="url(#paint0_linear)" stroke-width="1.5"/>
<defs>
<linearGradient id="paint0_linear" x1="3.87779e-08" y1="16.1143" x2="30" y2="16.1143" gradientUnits="userSpaceOnUse">
<stop stop-color="#8A0CE1"/>
<stop offset="1" stop-color="#EC38BC"/>
</linearGradient>
</defs>
</svg>
