<svg width="20" height="26" viewBox="0 0 20 26" fill="none" xmlns="http://www.w3.org/2000/svg">
<path d="M17.4606 25.187C18.455 25.187 19.2686 24.3744 19.2686 23.3801V13.1032C19.2686 12.1089 18.455 11.2962 17.4606 11.2962H2.53939C1.54503 11.2962 0.731369 12.1089 0.731369 13.1032V23.3801C0.731369 24.3744 1.54501 25.187 2.53939 25.187H17.4606ZM17.4606 24.3745H2.53939C1.9811 24.3745 1.54387 23.9384 1.54387 23.3801V13.1032C1.54387 12.545 1.98108 12.1087 2.53939 12.1087H17.4606C18.0189 12.1087 18.4561 12.545 18.4561 13.1032V23.3801C18.4561 23.9384 18.0189 24.3745 17.4606 24.3745Z" fill="url(#paint0_linear)"/>
<path d="M9.7133 0.812035C9.66506 0.813174 9.61742 0.822883 9.57259 0.840731C6.17636 0.919869 3.44499 3.66238 3.44499 7.07515V11.4402C3.44423 11.494 3.45417 11.5475 3.47425 11.5974C3.49432 11.6474 3.52412 11.6929 3.56192 11.7312C3.59972 11.7695 3.64476 11.8 3.69443 11.8208C3.7441 11.8416 3.7974 11.8523 3.85124 11.8523C3.90508 11.8523 3.95838 11.8416 4.00804 11.8208C4.05771 11.8 4.10275 11.7695 4.14055 11.7312C4.17835 11.6929 4.20815 11.6474 4.22823 11.5974C4.2483 11.5475 4.25825 11.494 4.25749 11.4402V7.07515C4.25749 4.04892 6.68349 1.62463 9.7133 1.62463H10.2867C13.3165 1.62463 15.7425 4.04892 15.7425 7.07515V11.5831C15.7418 11.6369 15.7517 11.6904 15.7718 11.7403C15.7918 11.7903 15.8217 11.8357 15.8595 11.8741C15.8972 11.9124 15.9423 11.9428 15.992 11.9636C16.0416 11.9844 16.0949 11.9951 16.1488 11.9951C16.2026 11.9951 16.2559 11.9844 16.3056 11.9636C16.3552 11.9428 16.4003 11.9124 16.4381 11.8741C16.4759 11.8357 16.5057 11.7903 16.5258 11.7403C16.5458 11.6904 16.5558 11.6369 16.555 11.5831V7.07515C16.555 3.61244 13.7522 0.812134 10.2867 0.812134H9.7133V0.812035ZM9.80217 2.39792C7.34803 2.39792 5.35669 4.3713 5.35669 6.81054V11.5512C5.35593 11.605 5.36587 11.6585 5.38595 11.7084C5.40602 11.7584 5.43583 11.8039 5.47362 11.8422C5.51142 11.8805 5.55647 11.911 5.60613 11.9317C5.6558 11.9525 5.7091 11.9632 5.76294 11.9632C5.81678 11.9632 5.87008 11.9525 5.91974 11.9317C5.96941 11.911 6.01445 11.8805 6.05225 11.8422C6.09005 11.8039 6.11985 11.7584 6.13993 11.7084C6.16 11.6585 6.16995 11.605 6.16919 11.5512V6.81054C6.16919 4.81097 7.78049 3.21042 9.80217 3.21042H10.1978C12.2195 3.21042 13.8308 4.81097 13.8308 6.81054V11.5724C13.8301 11.6262 13.84 11.6797 13.8601 11.7296C13.8801 11.7796 13.9099 11.825 13.9477 11.8634C13.9855 11.9017 14.0306 11.9322 14.0803 11.953C14.1299 11.9737 14.1832 11.9844 14.2371 11.9844C14.2909 11.9844 14.3442 11.9737 14.3939 11.953C14.4435 11.9322 14.4886 11.9017 14.5264 11.8634C14.5642 11.825 14.594 11.7796 14.6141 11.7296C14.6341 11.6797 14.6441 11.6262 14.6433 11.5724V6.81054C14.6433 4.3713 12.652 2.39792 10.1978 2.39792H9.80851H9.80216H9.80217Z" fill="url(#paint1_linear)"/>
<path d="M10 14.8213C8.93613 14.8213 8.06498 15.6924 8.06503 16.7563C8.06526 17.3575 8.38615 17.8798 8.85214 18.2427V20.5141C8.85214 21.1429 9.37047 21.663 10 21.663C10.6295 21.663 11.1479 21.1429 11.1479 20.5141V18.2416C11.6134 17.8789 11.9344 17.3569 11.935 16.7563C11.935 15.6924 11.0639 14.8213 10 14.8213ZM10 15.6338C10.6248 15.6338 11.1225 16.1315 11.1225 16.7563C11.1217 17.164 10.9015 17.5381 10.5449 17.7359C10.4814 17.7711 10.4285 17.8226 10.3916 17.8851C10.3548 17.9476 10.3354 18.0189 10.3354 18.0914V20.5141C10.3354 20.7075 10.1927 20.8505 10 20.8505C9.80731 20.8505 9.66464 20.7075 9.66464 20.5141V18.0925C9.66465 18.0199 9.64523 17.9487 9.60839 17.8862C9.57156 17.8237 9.51865 17.7722 9.45517 17.737C9.09832 17.5391 8.87807 17.1643 8.87753 16.7563C8.8775 16.1315 9.37526 15.6338 10 15.6338Z" fill="url(#paint2_linear)"/>
<defs>
<linearGradient id="paint0_linear" x1="0.731369" y1="12.9995" x2="19.2686" y2="12.9995" gradientUnits="userSpaceOnUse">
<stop stop-color="#000092"/>
<stop offset="1" stop-color="#FF00F3"/>
</linearGradient>
<linearGradient id="paint1_linear" x1="0.731363" y1="12.9995" x2="19.2686" y2="12.9995" gradientUnits="userSpaceOnUse">
<stop stop-color="#000092"/>
<stop offset="1" stop-color="#FF00F3"/>
</linearGradient>
<linearGradient id="paint2_linear" x1="0.731376" y1="12.9995" x2="19.2686" y2="12.9995" gradientUnits="userSpaceOnUse">
<stop stop-color="#000092"/>
<stop offset="1" stop-color="#FF00F3"/>
</linearGradient>
</defs>
</svg>
