<svg width="23" height="23" viewBox="0 0 23 23" fill="none" xmlns="http://www.w3.org/2000/svg">
<path d="M11.6149 0.25C5.55525 0.25 0.625 5.18025 0.625 11.2399C0.625 14.1762 1.76738 16.9355 3.8425 19.0106C5.91925 21.0874 8.6785 22.2297 11.6149 22.2297C17.6745 22.2297 22.6047 17.2995 22.6047 11.2399C22.6047 5.18025 17.6745 0.25 11.6149 0.25ZM4.97187 18.9391C6.50912 16.942 8.87675 15.7444 11.4036 15.707C11.4426 15.7086 11.48 15.7184 11.519 15.7184H11.5564C11.5921 15.7184 11.6246 15.7086 11.6604 15.707C14.2279 15.7493 16.6117 16.981 18.1474 19.0317C16.3794 20.5186 14.1011 21.4172 11.6149 21.4172C9.14812 21.4172 6.8195 20.5381 4.97187 18.9391ZM11.5239 14.8864C11.4832 14.8864 11.4443 14.8929 11.4036 14.8945C9.452 14.8311 7.88225 13.2338 7.88225 11.2301C7.88225 9.22488 9.51375 7.59338 11.558 7.59338C13.5633 7.59338 15.1947 9.22488 15.1947 11.2691C15.1947 13.2386 13.6185 14.8392 11.662 14.8961C11.6165 14.8945 11.571 14.8864 11.5239 14.8864ZM18.7502 18.4858C17.4762 16.8153 15.692 15.642 13.6868 15.1512C15.0615 14.3907 16.0072 12.9364 16.0072 11.2318C16.0072 8.778 14.0101 6.7825 11.519 6.7825C9.06525 6.7825 7.06975 8.77962 7.06975 11.2707C7.06975 12.9445 8.01062 14.3875 9.3805 15.148C7.40937 15.6274 5.64462 16.7681 4.37387 18.3899C2.48237 16.474 1.43913 13.939 1.43913 11.2431C1.43913 5.63038 6.00537 1.06575 11.6165 1.06575C17.2276 1.06575 21.7939 5.632 21.7939 11.2431C21.7923 14.0739 20.6255 16.6381 18.7502 18.4858Z" fill="url(#paint0_linear)"/>
<defs>
<linearGradient id="paint0_linear" x1="0.625" y1="11.2399" x2="20.125" y2="11.2399" gradientUnits="userSpaceOnUse">
<stop stop-color="#000092"/>
<stop offset="1" stop-color="#FF00F3"/>
</linearGradient>
</defs>
</svg>
