<svg width="30" height="30" viewBox="0 0 30 30" fill="none" xmlns="http://www.w3.org/2000/svg">
<path fill-rule="evenodd" clip-rule="evenodd" d="M1.875 16.4306C1.875 9.43875 7.56375 3.75 14.5556 3.75C21.5475 3.75 27.2362 9.43875 27.2362 16.4306C27.2362 18.5659 26.7057 20.5797 25.7694 22.347C25.6522 21.937 25.4924 21.545 25.2952 21.176C25.9403 19.7251 26.2997 18.1207 26.3006 16.4344C26.3006 9.96 21.0319 4.69125 14.5575 4.69125C8.08312 4.69125 2.81438 9.95813 2.81438 16.4344C2.81438 19.545 4.01812 22.47 6.20062 24.6806C7.66687 22.8094 9.70312 21.4931 11.9775 20.94C10.3969 20.0625 9.31125 18.3975 9.31125 16.4662C9.31125 13.5919 11.6138 11.2875 14.445 11.2875C17.3194 11.2875 19.6237 13.59 19.6237 16.4213C19.6237 16.9864 19.5337 17.5276 19.3676 18.0329C18.9961 18.0718 18.6347 18.1447 18.2865 18.2482C18.5428 17.7072 18.6862 17.1026 18.6862 16.4644C18.6862 14.1056 16.8038 12.2231 14.49 12.2231C12.1313 12.2231 10.2487 14.1056 10.2487 16.4194C10.2487 18.7312 12.06 20.5744 14.3119 20.6475C14.3321 20.6467 14.3519 20.6448 14.3717 20.643C14.3978 20.6406 14.4239 20.6381 14.4506 20.6381C14.4811 20.6381 14.511 20.6411 14.5406 20.644C14.5638 20.6463 14.5869 20.6486 14.61 20.6494C14.7573 20.6451 14.9027 20.6332 15.0459 20.6142C14.8347 20.9225 14.6516 21.2517 14.5002 21.5978C14.4962 21.598 14.4922 21.5981 14.4881 21.5981H14.445C14.4205 21.5981 14.3966 21.5948 14.3726 21.5915C14.3525 21.5887 14.3324 21.5859 14.3119 21.585C11.3962 21.6281 8.66437 23.01 6.89062 25.3144C9.0225 27.1594 11.7094 28.1737 14.5556 28.1737C14.9218 28.1737 15.2841 28.1569 15.6417 28.1238C15.9318 28.4303 16.2539 28.7062 16.6026 28.9461C15.9361 29.0548 15.2523 29.1112 14.5556 29.1112C11.1675 29.1112 7.98375 27.7931 5.5875 25.3969C3.19313 23.0025 1.875 19.8187 1.875 16.4306Z" fill="url(#paint0_linear)"/>
<path d="M20.0375 20.5375V27.5375M23.5375 24.0375H16.5375" stroke="url(#paint1_linear)"/>
<circle cx="20" cy="24" r="5.5" stroke="url(#paint2_linear)"/>
<defs>
<linearGradient id="paint0_linear" x1="1.875" y1="16.4306" x2="24.375" y2="16.4306" gradientUnits="userSpaceOnUse">
<stop stop-color="#000092"/>
<stop offset="1" stop-color="#FF00F3"/>
</linearGradient>
<linearGradient id="paint1_linear" x1="16.5375" y1="24.3375" x2="23.5375" y2="24.3375" gradientUnits="userSpaceOnUse">
<stop stop-color="#000092"/>
<stop offset="1" stop-color="#FF00F3"/>
</linearGradient>
<linearGradient id="paint2_linear" x1="14" y1="24.5143" x2="26" y2="24.5143" gradientUnits="userSpaceOnUse">
<stop stop-color="#000092"/>
<stop offset="1" stop-color="#FF00F3"/>
</linearGradient>
</defs>
</svg>
